<?xml version="1.0" standalone="no"?>
<!DOCTYPE svg PUBLIC "-//W3C//DTD SVG 20010904//EN"
 "http://www.w3.org/TR/2001/REC-SVG-20010904/DTD/svg10.dtd">
<svg version="1.0" xmlns="http://www.w3.org/2000/svg"
 width="1335.000000pt" height="1233.000000pt" viewBox="0 0 1335.000000 1233.000000"
 preserveAspectRatio="xMidYMid meet">

<g transform="translate(0.000000,1233.000000) scale(0.100000,-0.100000)"
fill="#000000" stroke="none">
<path d="M7195 12214 c-121 -63 -335 -174 -475 -246 -140 -72 -291 -150 -335
-173 -44 -23 -231 -120 -415 -215 -184 -95 -393 -203 -465 -240 -131 -68 -572
-296 -895 -462 -96 -50 -224 -116 -285 -148 -60 -32 -326 -169 -590 -305 -264
-136 -550 -283 -635 -327 -85 -44 -162 -88 -171 -97 -9 -9 -112 -178 -229
-376 -117 -198 -278 -470 -358 -605 -80 -135 -195 -328 -255 -430 -60 -102
-168 -284 -240 -405 -72 -121 -185 -312 -252 -425 -67 -113 -180 -304 -252
-425 -122 -207 -360 -608 -758 -1280 -95 -159 -237 -400 -317 -535 -191 -323
-184 -311 -191 -304 -6 7 -57 -88 -57 -107 0 -6 49 -122 109 -258 107 -241
250 -564 438 -991 52 -118 137 -309 188 -425 102 -232 223 -505 572 -1295 53
-118 137 -309 188 -425 51 -115 139 -313 194 -440 123 -280 130 -294 153 -306
16 -9 399 -94 2638 -584 1164 -255 1316 -288 1554 -341 110 -24 207 -44 217
-44 9 0 275 101 591 225 315 124 744 293 953 375 209 82 488 191 621 244 237
93 360 141 592 232 64 25 272 107 462 181 190 75 410 162 490 193 421 165 943
370 1075 422 336 132 432 170 699 274 189 74 283 116 292 130 8 11 30 67 50
125 58 167 331 959 394 1144 32 94 104 303 160 465 56 162 150 437 210 610 60
173 154 448 210 610 161 466 220 638 252 735 l30 90 -101 730 c-56 402 -149
1070 -207 1485 -57 415 -120 865 -138 1000 -19 135 -89 641 -156 1125 -95 686
-126 884 -139 897 -10 11 -86 30 -221 57 -359 71 -3457 686 -4210 836 -399 80
-734 145 -745 144 -11 0 -119 -52 -240 -115z"/>
</g>
</svg>
