<!--?xml version="1.0" standalone="no"?-->
              <svg id="sw-js-blob-svg" viewBox="0 0 100 100" xmlns="http://www.w3.org/2000/svg" version="1.1">
                    <defs> 
                        <linearGradient id="sw-gradient" x1="0" x2="1" y1="1" y2="0">
                            <stop id="stop1" stop-color="rgba(248, 117, 55, 1)" offset="0%"></stop>
                            <stop id="stop2" stop-color="rgba(251, 168, 31, 1)" offset="100%"></stop>
                        </linearGradient>
                    </defs>
                <path fill="url(#sw-gradient)" d="M17.5,-32.1C22.5,-27.4,26.3,-22.4,30,-17C33.7,-11.6,37.4,-5.8,38.2,0.5C39.1,6.8,37.2,13.6,33.9,19.8C30.7,25.9,26,31.5,20.2,36.2C14.3,40.9,7.1,44.6,0.9,43.1C-5.4,41.5,-10.8,34.7,-15.7,29.6C-20.7,24.4,-25.3,20.8,-27.7,16.2C-30.1,11.5,-30.3,5.8,-31.8,-0.9C-33.3,-7.5,-36.1,-15,-34.1,-20.2C-32,-25.5,-25.1,-28.6,-18.7,-32.5C-12.2,-36.3,-6.1,-41,0.1,-41.2C6.2,-41.3,12.5,-36.9,17.5,-32.1Z" width="100%" height="100%" transform="translate(50 50)" stroke-width="0" style="transition: all 0.3s ease 0s;" stroke="url(#sw-gradient)"></path>
              </svg>